<?xml version="1.0" encoding="utf-8"?>
<!-- Generator: Adobe Illustrator 18.0.0, SVG Export Plug-In . SVG Version: 6.00 Build 0)  -->
<!DOCTYPE svg PUBLIC "-//W3C//DTD SVG 1.1//EN" "http://www.w3.org/Graphics/SVG/1.1/DTD/svg11.dtd">
<svg version="1.1" id="Layer_1" xmlns="http://www.w3.org/2000/svg" xmlns:xlink="http://www.w3.org/1999/xlink" x="0px" y="0px"
	 viewBox="0 0 418 124" enable-background="new 0 0 418 124" xml:space="preserve">
<g>
	<g>
		<path fill="#DEDEDD" d="M401,34.1H17c-9.4,0-17-7.7-17-17.1S7.6,0,17,0h384c9.4,0,17,7.7,17,17.1S410.4,34.1,401,34.1z M17,5
			c-6.6,0-12,5.4-12,12s5.4,12,12,12h384c6.6,0,12-5.4,12-12s-5.4-12-12-12H17z"/>
	</g>
	<g>
		<path fill="#DEDEDD" d="M17,34.1c-9.4,0-17-7.7-17-17.1S7.6,0,17,0s17,7.7,17,17.1S26.4,34.1,17,34.1z M17,5c-6.6,0-12,5.4-12,12
			s5.4,12,12,12s12-5.4,12-12S23.6,5,17,5z"/>
	</g>
	<g>
		<path fill="#DEDEDD" d="M401,34.1c-9.4,0-17-7.7-17-17.1S391.6,0,401,0s17,7.7,17,17.1S410.4,34.1,401,34.1z M401,5
			c-6.6,0-12,5.4-12,12s5.4,12,12,12s12-5.4,12-12S407.6,5,401,5z"/>
	</g>
	<g>
		<rect x="398.5" y="17.1" fill="#DEDEDD" width="5" height="106.9"/>
	</g>
	<g>
		<rect x="14.5" y="17.1" fill="#DEDEDD" width="5" height="106.9"/>
	</g>
	<g>
		<path fill="#DEDEDD" d="M114,34.1c-9.4,0-17-7.7-17-17.1S104.6,0,114,0s17,7.7,17,17.1S123.4,34.1,114,34.1z M114,5
			c-6.6,0-12,5.4-12,12s5.4,12,12,12s12-5.4,12-12S120.6,5,114,5z"/>
	</g>
	<g>
		<rect x="111.5" y="17.1" fill="#DEDEDD" width="5" height="106.9"/>
	</g>
	<g>
		<path fill="#DEDEDD" d="M210,34.1c-9.4,0-17-7.7-17-17.1S200.6,0,210,0s17,7.7,17,17.1S219.4,34.1,210,34.1z M210,5
			c-6.6,0-12,5.4-12,12s5.4,12,12,12c6.6,0,12-5.4,12-12S216.6,5,210,5z"/>
	</g>
	<g>
		<rect x="207.5" y="17.1" fill="#DEDEDD" width="5" height="106.9"/>
	</g>
	<g>
		<path fill="#DEDEDD" d="M306,34.1c-9.4,0-17-7.7-17-17.1S296.6,0,306,0s17,7.7,17,17.1S315.4,34.1,306,34.1z M306,5
			c-6.6,0-12,5.4-12,12s5.4,12,12,12s12-5.4,12-12S312.6,5,306,5z"/>
	</g>
	<g>
		<rect x="303.5" y="17.1" fill="#DEDEDD" width="5" height="106.9"/>
	</g>
</g>
</svg>
