<?xml version="1.0" encoding="utf-8"?>
<!-- Generator: Adobe Illustrator 18.0.0, SVG Export Plug-In . SVG Version: 6.00 Build 0)  -->
<!DOCTYPE svg PUBLIC "-//W3C//DTD SVG 1.1//EN" "http://www.w3.org/Graphics/SVG/1.1/DTD/svg11.dtd">
<svg version="1.1" id="Layer_1" xmlns="http://www.w3.org/2000/svg" xmlns:xlink="http://www.w3.org/1999/xlink" x="0px" y="0px"
	 viewBox="0 0 90 118" enable-background="new 0 0 90 118" xml:space="preserve">
<path fill="#DDDDDC" d="M90,16.7C90,5.8,66.8,0,45,0C23.2,0,0,5.8,0,16.7c0,0,0,0,0,0.1h0V118h5V24.6c8,5.7,24.3,8.7,40,8.7
	c15.7,0,32-3,40-8.7V118h5V16.7L90,16.7C90,16.7,90,16.7,90,16.7z M45,28.3c-24.8,0-40-6.8-40-11.7S20.2,5,45,5
	c24.8,0,40,6.8,40,11.7S69.8,28.3,45,28.3z"/>
</svg>
