<?xml version="1.0" encoding="utf-8"?>
<!-- Generator: Adobe Illustrator 18.0.0, SVG Export Plug-In . SVG Version: 6.00 Build 0)  -->
<!DOCTYPE svg PUBLIC "-//W3C//DTD SVG 1.1//EN" "http://www.w3.org/Graphics/SVG/1.1/DTD/svg11.dtd">
<svg version="1.1" id="Layer_1" xmlns="http://www.w3.org/2000/svg" xmlns:xlink="http://www.w3.org/1999/xlink" x="0px" y="0px"
	 viewBox="0 0 316 155" enable-background="new 0 0 316 155" xml:space="preserve">
<g>
	<path fill="#DEDEDD" d="M0-0.1v155.2h316V-0.1H0z M311,150.1H5V4.9h306V150.1z"/>
	<path fill="#DEDEDD" d="M215.5,23.4l0-0.3c0-0.1,0-0.1,0-0.2c0-0.2,0-0.3,0-0.5l0-1.5h-0.1c-1-5.9-6.1-10.5-12.3-10.5
		s-11.4,4.6-12.3,10.5h-0.2v84h25V23.4z M210.5,25.9v74h-15v-74h0.2l-0.2-2.8c0-0.1,0-0.1,0-0.2c0-4.1,3.4-7.5,7.5-7.5
		s7.5,3.4,7.5,7.5c0,0.1,0,0.1,0,0.2l-0.1,2.8H210.5z"/>
	<path fill="#DEDEDD" d="M245.5,23.4l0-0.3c0-0.1,0-0.1,0-0.2c0-0.2,0-0.3,0-0.5l0-1.5h-0.1c-1-5.9-6.1-10.5-12.3-10.5
		s-11.4,4.6-12.3,10.5h-0.2v84h25V23.4z M240.5,25.9v74h-15v-74h0.2l-0.2-2.8c0-0.1,0-0.1,0-0.2c0-4.1,3.4-7.5,7.5-7.5
		s7.5,3.4,7.5,7.5c0,0.1,0,0.1,0,0.2l-0.1,2.8H240.5z"/>
	<path fill="#DEDEDD" d="M275.5,23.4l0-0.3c0-0.1,0-0.1,0-0.2c0-0.2,0-0.3,0-0.5l0-1.5h-0.1c-1-5.9-6.1-10.5-12.3-10.5
		s-11.4,4.6-12.3,10.5h-0.2v84h25V23.4z M270.5,25.9v74h-15v-74h0.2l-0.2-2.8c0-0.1,0-0.1,0-0.2c0-4.1,3.4-7.5,7.5-7.5
		s7.5,3.4,7.5,7.5c0,0.1,0,0.1,0,0.2l-0.1,2.8H270.5z"/>
	<path fill="#DEDEDD" d="M305.5,23.4l0-0.3c0-0.1,0-0.1,0-0.2c0-0.2,0-0.3,0-0.5l0-1.5h-0.1c-1-5.9-6.1-10.5-12.3-10.5
		s-11.4,4.6-12.3,10.5h-0.2v84h25V23.4z M300.5,25.9v74h-15v-74h0.2l-0.2-2.8c0-0.1,0-0.1,0-0.2c0-4.1,3.4-7.5,7.5-7.5
		s7.5,3.4,7.5,7.5c0,0.1,0,0.1,0,0.2l-0.1,2.8H300.5z"/>
	<path fill="#DEDEDD" d="M95.5,23.4l0-0.3c0-0.1,0-0.1,0-0.2c0-0.2,0-0.3,0-0.5l0-1.5h-0.1c-1-5.9-6.1-10.5-12.3-10.5
		s-11.4,4.6-12.3,10.5h-0.2v84h25V23.4z M90.5,25.9v74h-15v-74h0.2l-0.1-2.8c0-0.1,0-0.1,0-0.2c0-4.1,3.4-7.5,7.5-7.5
		s7.5,3.4,7.5,7.5c0,0.1,0,0.1,0,0.2l-0.1,2.8H90.5z"/>
	<path fill="#DEDEDD" d="M125.5,23.4l0-0.3c0-0.1,0-0.1,0-0.2c0-0.2,0-0.3,0-0.5l0-1.5h-0.1c-1-5.9-6.1-10.5-12.3-10.5
		s-11.4,4.6-12.3,10.5h-0.2v84h25V23.4z M120.5,25.9v74h-15v-74h0.2l-0.1-2.8c0-0.1,0-0.1,0-0.2c0-4.1,3.4-7.5,7.5-7.5
		s7.5,3.4,7.5,7.5c0,0.1,0,0.1,0,0.2l-0.1,2.8H120.5z"/>
	<path fill="#DEDEDD" d="M155.5,23.4l0-0.3c0-0.1,0-0.1,0-0.2c0-0.2,0-0.3,0-0.5l0-1.5h-0.1c-1-5.9-6.1-10.5-12.3-10.5
		s-11.4,4.6-12.3,10.5h-0.2v84h25V23.4z M150.5,25.9v74h-15v-74h0.2l-0.1-2.8c0-0.1,0-0.1,0-0.2c0-4.1,3.4-7.5,7.5-7.5
		s7.5,3.4,7.5,7.5c0,0.1,0,0.1,0,0.2l-0.1,2.8H150.5z"/>
	<path fill="#DEDEDD" d="M185.5,23.4l0-0.3c0-0.1,0-0.1,0-0.2c0-0.2,0-0.3,0-0.5l0-1.5h-0.1c-1-5.9-6.1-10.5-12.3-10.5
		s-11.4,4.6-12.3,10.5h-0.2v84h25V23.4z M180.5,25.9v74h-15v-74h0.2l-0.2-2.8c0-0.1,0-0.1,0-0.2c0-4.1,3.4-7.5,7.5-7.5
		s7.5,3.4,7.5,7.5c0,0.1,0,0.1,0,0.2l-0.1,2.8H180.5z"/>
	<path fill="#DEDEDD" d="M35.5,23.4l0-0.3c0-0.1,0-0.1,0-0.2c0-0.2,0-0.3,0-0.5l0-1.5h-0.1c-1-5.9-6.1-10.5-12.3-10.5
		s-11.4,4.6-12.3,10.5h-0.2v84h25V23.4z M30.5,25.9v74h-15v-74h0.2l-0.1-2.8c0-0.1,0-0.1,0-0.2c0-4.1,3.4-7.5,7.5-7.5
		s7.5,3.4,7.5,7.5c0,0.1,0,0.1,0,0.2l-0.1,2.8H30.5z"/>
	<path fill="#DEDEDD" d="M65.5,23.4l0-0.3c0-0.1,0-0.1,0-0.2c0-0.2,0-0.3,0-0.5l0-1.5h-0.1c-1-5.9-6.1-10.5-12.3-10.5
		s-11.4,4.6-12.3,10.5h-0.2v84h25V23.4z M60.5,25.9v74h-15v-74h0.2l-0.1-2.8c0-0.1,0-0.1,0-0.2c0-4.1,3.4-7.5,7.5-7.5
		s7.5,3.4,7.5,7.5c0,0.1,0,0.1,0,0.2l-0.1,2.8H60.5z"/>
</g>
</svg>
