<?xml version="1.0" encoding="utf-8"?>
<!-- Generator: Adobe Illustrator 18.0.0, SVG Export Plug-In . SVG Version: 6.00 Build 0)  -->
<!DOCTYPE svg PUBLIC "-//W3C//DTD SVG 1.1//EN" "http://www.w3.org/Graphics/SVG/1.1/DTD/svg11.dtd">
<svg version="1.1" id="Layer_1" xmlns="http://www.w3.org/2000/svg" xmlns:xlink="http://www.w3.org/1999/xlink" x="0px" y="0px"
	 viewBox="0 0 280 40" enable-background="new 0 0 280 40" xml:space="preserve">
<g>
	<path fill="#E6E7E8" d="M37.7,2.2v35.6H25.1V26.3h-9.4v11.5H3.2V2.2h12.5v12.5h9.4V2.2H37.7z"/>
	<path fill="#E6E7E8" d="M91.6,2.2v35.6H79.1V23.7l-8.4,9.9l-8.4-9.9v14.1H49.9V2.2h9.4l11.5,13.6L82.2,2.2H91.6z"/>
	<path fill="#E6E7E8" d="M185,2.2v35.6h-12.6V26.3H163v11.5h-12.5V2.2H163v12.5h9.4V2.2H185z"/>
	<path fill="#E6E7E8" d="M276.8,2.3l-12.5,24v11.5h-12.5V26.3l-12.5-24h12.7l6.1,12.5l6.1-12.5H276.8z"/>
	<path fill="#E6E7E8" d="M116.4,2.2h-12.6h0v10.5v25v0.1h12.6v-0.1v-7.3h11.5h10.4V2.2H116.4z M116.4,13.8h9.4V19h-9.4V13.8z"/>
	<path fill="#E6E7E8" d="M209.7,2.2h-12.6l0,0v28.3l0,0v7.3v0.1h12.6v-0.1v-7.3h4.3l3.2,7.3h12.6l-3.2-7.3h5V20.1v-7.3V2.2H209.7z
		 M209.7,13.8h9.4V19h-9.4V13.8z"/>
</g>
</svg>
