<?xml version="1.0" encoding="utf-8"?>
<!-- Generator: Adobe Illustrator 18.0.0, SVG Export Plug-In . SVG Version: 6.00 Build 0)  -->
<!DOCTYPE svg PUBLIC "-//W3C//DTD SVG 1.1//EN" "http://www.w3.org/Graphics/SVG/1.1/DTD/svg11.dtd">
<svg version="1.1" id="Layer_1" xmlns="http://www.w3.org/2000/svg" xmlns:xlink="http://www.w3.org/1999/xlink" x="0px" y="0px"
	 viewBox="0 0 155 45" enable-background="new 0 0 155 45" xml:space="preserve">
<path fill="#DEDEDD" d="M155,15h-20V0h-25v30h-5V0H0v35h0.4C0.2,35.8,0,36.6,0,37.5C0,41.6,3.4,45,7.5,45c1.9,0,3.7-0.7,5-1.9
	c1.3,1.2,3.1,1.9,5,1.9s3.7-0.7,5-1.9c1.3,1.2,3.1,1.9,5,1.9c4.1,0,7.5-3.4,7.5-7.5c0-0.9-0.2-1.7-0.4-2.5h23.6h32.3
	c-0.3,0.8-0.4,1.6-0.4,2.5c0,4.1,3.4,7.5,7.5,7.5c1.9,0,3.7-0.7,5-1.9c1.3,1.2,3.1,1.9,5,1.9c4.1,0,7.5-3.4,7.5-7.5
	c0-0.9-0.2-1.7-0.4-2.5h7.9h7.5h5h5.4c-0.3,0.8-0.4,1.6-0.4,2.5c0,4.1,3.4,7.5,7.5,7.5s7.5-3.4,7.5-7.5c0-0.9-0.2-1.7-0.4-2.5h0.4
	V15z M7.5,40C6.1,40,5,38.9,5,37.5S6.1,35,7.5,35s2.5,1.1,2.5,2.5S8.9,40,7.5,40z M17.5,40c-1.4,0-2.5-1.1-2.5-2.5s1.1-2.5,2.5-2.5
	s2.5,1.1,2.5,2.5S18.9,40,17.5,40z M30,37.5c0,1.4-1.1,2.5-2.5,2.5S25,38.9,25,37.5s1.1-2.5,2.5-2.5S30,36.1,30,37.5z M5,30V5h95v25
	H58.2H5z M97.5,40c-1.4,0-2.5-1.1-2.5-2.5s1.1-2.5,2.5-2.5s2.5,1.1,2.5,2.5S98.9,40,97.5,40z M107.5,40c-1.4,0-2.5-1.1-2.5-2.5
	s1.1-2.5,2.5-2.5s2.5,1.1,2.5,2.5S108.9,40,107.5,40z M130,30h-7.5H115V5h15v10V30z M135,20h15v10h-15V20z M150,37.5
	c0,1.4-1.1,2.5-2.5,2.5s-2.5-1.1-2.5-2.5s1.1-2.5,2.5-2.5S150,36.1,150,37.5z"/>
</svg>
